<?xml version="1.0" standalone="no"?>
<!DOCTYPE svg PUBLIC "-//W3C//DTD SVG 20010904//EN"
 "http://www.w3.org/TR/2001/REC-SVG-20010904/DTD/svg10.dtd">
<svg version="1.0" xmlns="http://www.w3.org/2000/svg"
 width="512.000000pt" height="512.000000pt" viewBox="0 0 512.000000 512.000000"
 preserveAspectRatio="xMidYMid meet">

<g transform="translate(0.000000,512.000000) scale(0.100000,-0.100000)"
fill="#000000" stroke="none">
<path d="M3945 4941 c-38 -10 -826 -237 -1750 -505 -1189 -344 -1701 -497
-1754 -522 -180 -88 -292 -284 -278 -484 4 -53 29 -149 82 -324 l75 -249 0
-1136 c0 -1250 -3 -1192 61 -1312 38 -70 126 -157 197 -193 117 -59 -5 -56
2062 -56 2087 0 1948 -4 2071 61 70 38 157 126 193 197 58 115 56 63 56 1332
l0 1165 -23 40 c-14 26 -37 48 -67 63 l-44 22 -1601 1 c-1366 0 -1594 3 -1560
14 35 12 1253 366 2410 700 542 156 528 152 557 183 36 38 48 65 48 108 0 51
-164 593 -202 668 -17 33 -54 83 -82 110 -123 120 -279 160 -451 117z m183
-315 c56 -29 71 -59 133 -261 33 -109 57 -201 52 -205 -7 -6 -432 -130 -446
-130 -7 0 -441 408 -445 418 -3 11 602 189 646 191 18 0 45 -5 60 -13z m-938
-403 c201 -188 311 -295 307 -300 -2 -2 -160 -49 -351 -104 l-346 -100 -69 63
c-152 139 -379 353 -380 359 -1 5 667 205 694 208 6 0 71 -56 145 -126z m-976
-395 c125 -117 223 -214 219 -215 -4 -2 -146 -43 -314 -91 l-306 -89 -225 211
c-124 116 -224 213 -222 215 4 4 594 178 610 180 7 1 114 -95 238 -211z m-985
-285 c121 -114 217 -210 213 -214 -14 -13 -846 -249 -853 -241 -14 14 -109
345 -108 376 2 94 59 156 173 191 253 76 313 93 333 94 15 1 86 -60 242 -206z
m237 -839 c-3 -9 -67 -117 -142 -240 l-136 -224 -274 0 -274 0 0 240 0 240
416 0 c379 0 416 -1 410 -16z m1120 0 c-3 -9 -67 -117 -142 -240 l-136 -224
-369 0 c-203 0 -369 3 -369 6 0 3 63 111 141 240 l140 234 371 0 c337 0 370
-1 364 -16z m1120 0 c-3 -9 -67 -117 -142 -240 l-136 -224 -369 0 c-203 0
-369 3 -369 6 0 3 63 111 141 240 l140 234 371 0 c337 0 370 -1 364 -16z m934
-224 l0 -240 -415 0 c-228 0 -415 3 -415 6 0 3 63 111 141 240 l140 234 275 0
274 0 0 -240z"/>
</g>
</svg>
